<?xml version="1.0" encoding="UTF-8" standalone="no"?><!-- Generator: Gravit.io --><svg xmlns="http://www.w3.org/2000/svg" xmlns:xlink="http://www.w3.org/1999/xlink" style="isolation:isolate" viewBox="453.898 79.385 605.394 390.615" width="605.394pt" height="390.615pt"><defs><clipPath id="_clipPath_EV7vGrtxf0LBRdf6IWTHeulSjwierkGl"><rect x="453.898" y="79.385" width="605.394" height="390.615"/></clipPath></defs><g clip-path="url(#_clipPath_EV7vGrtxf0LBRdf6IWTHeulSjwierkGl)"><g><g><path d=" M 494.905 123.552 C 472.343 146.347 459.426 172.819 458.013 204.968 C 456.599 236.943 468.313 263.483 487.266 288.932 C 507.16 315.637 531.7 332.794 563.6 342.358 C 592.696 351.086 619.582 350.267 648.835 342.358 C 675.751 335.08 690.397 310.863 717.53 304.195 C 742.078 298.165 764.385 297.24 788.774 304.195 C 813.427 311.224 826.035 333.306 849.838 342.358 C 894.249 359.266 939.847 366.326 982.138 342.358 C 1005.272 329.253 1021 311.856 1034.3 288.932 C 1049.743 262.302 1057.69 235.755 1054.652 204.968 C 1051.465 172.669 1038.39 146.234 1015.219 123.552 C 989.371 98.252 957.538 90.832 922.345 85.381 C 880.37 78.885 845.936 98.531 804.036 100.651 C 776.797 102.027 753.686 101.733 726.432 100.651 C 677.864 98.719 637.528 76.765 589.042 85.381 C 553.646 91.674 520.708 97.463 494.905 123.552 Z " fill="rgb(255,255,255)"/><g><mask id="_mask_vpx9VVf6BJni3RRf3oihwHFnHawY2wXw" x="-200%" y="-200%" width="400%" height="400%"><rect x="-200%" y="-200%" width="400%" height="400%" style="fill:white;"/><path d=" M 494.905 123.552 C 472.343 146.347 459.426 172.819 458.013 204.968 C 456.599 236.943 468.313 263.483 487.266 288.932 C 507.16 315.637 531.7 332.794 563.6 342.358 C 592.696 351.086 619.582 350.267 648.835 342.358 C 675.751 335.08 690.397 310.863 717.53 304.195 C 742.078 298.165 764.385 297.24 788.774 304.195 C 813.427 311.224 826.035 333.306 849.838 342.358 C 894.249 359.266 939.847 366.326 982.138 342.358 C 1005.272 329.253 1021 311.856 1034.3 288.932 C 1049.743 262.302 1057.69 235.755 1054.652 204.968 C 1051.465 172.669 1038.39 146.234 1015.219 123.552 C 989.371 98.252 957.538 90.832 922.345 85.381 C 880.37 78.885 845.936 98.531 804.036 100.651 C 776.797 102.027 753.686 101.733 726.432 100.651 C 677.864 98.719 637.528 76.765 589.042 85.381 C 553.646 91.674 520.708 97.463 494.905 123.552 Z " fill="black" stroke="none"/></mask><path d=" M 494.905 123.552 C 472.343 146.347 459.426 172.819 458.013 204.968 C 456.599 236.943 468.313 263.483 487.266 288.932 C 507.16 315.637 531.7 332.794 563.6 342.358 C 592.696 351.086 619.582 350.267 648.835 342.358 C 675.751 335.08 690.397 310.863 717.53 304.195 C 742.078 298.165 764.385 297.24 788.774 304.195 C 813.427 311.224 826.035 333.306 849.838 342.358 C 894.249 359.266 939.847 366.326 982.138 342.358 C 1005.272 329.253 1021 311.856 1034.3 288.932 C 1049.743 262.302 1057.69 235.755 1054.652 204.968 C 1051.465 172.669 1038.39 146.234 1015.219 123.552 C 989.371 98.252 957.538 90.832 922.345 85.381 C 880.37 78.885 845.936 98.531 804.036 100.651 C 776.797 102.027 753.686 101.733 726.432 100.651 C 677.864 98.719 637.528 76.765 589.042 85.381 C 553.646 91.674 520.708 97.463 494.905 123.552 Z " fill="none" mask="url(#_mask_vpx9VVf6BJni3RRf3oihwHFnHawY2wXw)" vector-effect="non-scaling-stroke" stroke-width="2" stroke="rgb(0,0,0)" stroke-linejoin="miter" stroke-linecap="butt" stroke-miterlimit="4"/><path d=" M 494.905 123.552 C 472.343 146.347 459.426 172.819 458.013 204.968 C 456.599 236.943 468.313 263.483 487.266 288.932 C 507.16 315.637 531.7 332.794 563.6 342.358 C 592.696 351.086 619.582 350.267 648.835 342.358 C 675.751 335.08 690.397 310.863 717.53 304.195 C 742.078 298.165 764.385 297.24 788.774 304.195 C 813.427 311.224 826.035 333.306 849.838 342.358 C 894.249 359.266 939.847 366.326 982.138 342.358 C 1005.272 329.253 1021 311.856 1034.3 288.932 C 1049.743 262.302 1057.69 235.755 1054.652 204.968 C 1051.465 172.669 1038.39 146.234 1015.219 123.552 C 989.371 98.252 957.538 90.832 922.345 85.381 C 880.37 78.885 845.936 98.531 804.036 100.651 C 776.797 102.027 753.686 101.733 726.432 100.651 C 677.864 98.719 637.528 76.765 589.042 85.381 C 553.646 91.674 520.708 97.463 494.905 123.552 Z " fill="none"/></g></g><g><path d=" M 550.826 139.017 C 533.091 156.948 522.933 177.751 521.821 203.035 C 520.708 228.177 529.925 249.04 544.827 269.054 C 560.465 290.053 579.764 303.548 604.846 311.066 C 627.716 317.923 648.865 317.284 671.864 311.066 C 693.028 305.345 704.546 286.301 725.876 281.061 C 745.175 276.317 762.723 275.587 781.895 281.061 C 801.277 286.587 811.201 303.946 829.907 311.066 C 864.837 324.359 900.684 329.907 933.938 311.066 C 952.125 300.759 964.492 287.083 974.951 269.054 C 987.093 248.115 993.348 227.237 990.957 203.035 C 988.453 177.638 978.168 156.85 959.944 139.017 C 939.629 119.123 914.593 113.289 886.926 109.004 C 853.92 103.899 826.847 119.341 793.902 121.01 C 772.474 122.093 754.31 121.86 732.883 121.01 C 694.69 119.492 662.97 102.23 624.852 109.004 C 597.011 113.951 571.118 118.507 550.826 139.017 Z " fill="rgb(255,255,255)"/><g><mask id="_mask_eM8elWX1ZQBEDX5Y5P5Nf4gNc8KqSHwa" x="-200%" y="-200%" width="400%" height="400%"><rect x="-200%" y="-200%" width="400%" height="400%" style="fill:white;"/><path d=" M 550.826 139.017 C 533.091 156.948 522.933 177.751 521.821 203.035 C 520.708 228.177 529.925 249.04 544.827 269.054 C 560.465 290.053 579.764 303.548 604.846 311.066 C 627.716 317.923 648.865 317.284 671.864 311.066 C 693.028 305.345 704.546 286.301 725.876 281.061 C 745.175 276.317 762.723 275.587 781.895 281.061 C 801.277 286.587 811.201 303.946 829.907 311.066 C 864.837 324.359 900.684 329.907 933.938 311.066 C 952.125 300.759 964.492 287.083 974.951 269.054 C 987.093 248.115 993.348 227.237 990.957 203.035 C 988.453 177.638 978.168 156.85 959.944 139.017 C 939.629 119.123 914.593 113.289 886.926 109.004 C 853.92 103.899 826.847 119.341 793.902 121.01 C 772.474 122.093 754.31 121.86 732.883 121.01 C 694.69 119.492 662.97 102.23 624.852 109.004 C 597.011 113.951 571.118 118.507 550.826 139.017 Z " fill="black" stroke="none"/></mask><path d=" M 550.826 139.017 C 533.091 156.948 522.933 177.751 521.821 203.035 C 520.708 228.177 529.925 249.04 544.827 269.054 C 560.465 290.053 579.764 303.548 604.846 311.066 C 627.716 317.923 648.865 317.284 671.864 311.066 C 693.028 305.345 704.546 286.301 725.876 281.061 C 745.175 276.317 762.723 275.587 781.895 281.061 C 801.277 286.587 811.201 303.946 829.907 311.066 C 864.837 324.359 900.684 329.907 933.938 311.066 C 952.125 300.759 964.492 287.083 974.951 269.054 C 987.093 248.115 993.348 227.237 990.957 203.035 C 988.453 177.638 978.168 156.85 959.944 139.017 C 939.629 119.123 914.593 113.289 886.926 109.004 C 853.92 103.899 826.847 119.341 793.902 121.01 C 772.474 122.093 754.31 121.86 732.883 121.01 C 694.69 119.492 662.97 102.23 624.852 109.004 C 597.011 113.951 571.118 118.507 550.826 139.017 Z " fill="none" mask="url(#_mask_eM8elWX1ZQBEDX5Y5P5Nf4gNc8KqSHwa)" vector-effect="non-scaling-stroke" stroke-width="2" stroke="rgb(0,0,0)" stroke-linejoin="miter" stroke-linecap="butt" stroke-miterlimit="4"/><path d=" M 550.826 139.017 C 533.091 156.948 522.933 177.751 521.821 203.035 C 520.708 228.177 529.925 249.04 544.827 269.054 C 560.465 290.053 579.764 303.548 604.846 311.066 C 627.716 317.923 648.865 317.284 671.864 311.066 C 693.028 305.345 704.546 286.301 725.876 281.061 C 745.175 276.317 762.723 275.587 781.895 281.061 C 801.277 286.587 811.201 303.946 829.907 311.066 C 864.837 324.359 900.684 329.907 933.938 311.066 C 952.125 300.759 964.492 287.083 974.951 269.054 C 987.093 248.115 993.348 227.237 990.957 203.035 C 988.453 177.638 978.168 156.85 959.944 139.017 C 939.629 119.123 914.593 113.289 886.926 109.004 C 853.92 103.899 826.847 119.341 793.902 121.01 C 772.474 122.093 754.31 121.86 732.883 121.01 C 694.69 119.492 662.97 102.23 624.852 109.004 C 597.011 113.951 571.118 118.507 550.826 139.017 Z " fill="none"/></g></g><g><path d=" M 627.904 134.017 C 584.839 134.017 549.924 168.932 549.924 211.997 C 549.924 255.062 584.839 289.97 627.904 289.97 C 670.969 289.97 705.877 255.062 705.877 211.997 C 705.877 168.932 670.969 134.017 627.904 134.017 Z " fill="rgb(235,235,235)"/><g><path d=" M 627.904 134.017 C 584.839 134.017 549.924 168.932 549.924 211.997 C 549.924 255.062 584.839 289.97 627.904 289.97 C 670.969 289.97 705.877 255.062 705.877 211.997 C 705.877 168.932 670.969 134.017 627.904 134.017 Z " fill="none"/></g></g><g><path d=" M 887.024 134.017 C 843.959 134.017 809.051 168.932 809.051 211.997 C 809.051 255.062 843.959 289.97 887.024 289.97 C 930.089 289.97 965.004 255.062 965.004 211.997 C 965.004 168.932 930.089 134.017 887.024 134.017 Z " fill="rgb(235,235,235)"/><g><path d=" M 887.024 134.017 C 843.959 134.017 809.051 168.932 809.051 211.997 C 809.051 255.062 843.959 289.97 887.024 289.97 C 930.089 289.97 965.004 255.062 965.004 211.997 C 965.004 168.932 930.089 134.017 887.024 134.017 Z " fill="none"/></g></g><g><line x1="806.217" y1="211.997" x2="706.975" y2="211.997"/><g><mask id="_mask_4HNuD8WUvE7SteIb0zIJxPl6V5S3dsDs" x="-200%" y="-200%" width="400%" height="400%"><rect x="-200%" y="-200%" width="400%" height="400%" style="fill:white;"/><line x1="806.217" y1="211.997" x2="706.975" y2="211.997" fill="black" stroke="none"/></mask><line x1="806.217" y1="211.997" x2="706.975" y2="211.997" mask="url(#_mask_4HNuD8WUvE7SteIb0zIJxPl6V5S3dsDs)" vector-effect="non-scaling-stroke" stroke-width="2" stroke="rgb(0,0,0)" stroke-linejoin="miter" stroke-linecap="butt" stroke-miterlimit="4"/></g></g></g><line x1="527" y1="195.403" x2="457.898" y2="195.403" vector-effect="non-scaling-stroke" stroke-width="1" stroke="rgb(0,0,0)" stroke-linejoin="miter" stroke-linecap="square" stroke-miterlimit="3"/><text transform="matrix(1,0,0,1,466,180.129)" style="font-family:'Open Sans';font-weight:400;font-size:14px;font-style:normal;fill:#000000;stroke:none;">1.5~2.4</text><line x1="626" y1="134" x2="628" y2="290" vector-effect="non-scaling-stroke" stroke-width="1" stroke="rgb(0,0,0)" stroke-linejoin="miter" stroke-linecap="square" stroke-miterlimit="3"/><line x1="977.101" y1="342.011" x2="962.064" y2="329.981" vector-effect="non-scaling-stroke" stroke-width="1" stroke="rgb(0,0,0)" stroke-linejoin="miter" stroke-linecap="square" stroke-miterlimit="3"/><text transform="matrix(0.752,0,0,0.752,736.89,201.237)" style="font-family:'Open Sans';font-weight:400;font-size:20px;font-style:normal;fill:#000000;stroke:none;">3.5</text><text transform="matrix(0.752,0,0,0.752,632.662,217.833)" style="font-family:'Open Sans';font-weight:400;font-size:20px;font-style:normal;fill:#000000;stroke:none;">5.5</text><line x1="962.064" y1="438.245" x2="962.816" y2="329.981" vector-effect="non-scaling-stroke" stroke-width="1" stroke="rgb(0,0,0)" stroke-linejoin="miter" stroke-linecap="square" stroke-miterlimit="3"/><line x1="948.531" y1="342.011" x2="962.816" y2="329.981" vector-effect="non-scaling-stroke" stroke-width="1" stroke="rgb(0,0,0)" stroke-linejoin="miter" stroke-linecap="square" stroke-miterlimit="3"/><text transform="matrix(0.752,0,0,0.752,922.969,465.595)" style="font-family:'Open Sans';font-weight:400;font-size:20px;font-style:normal;fill:#000000;stroke:none;">Padding Area</text><line x1="551" y1="220.592" x2="524" y2="220.592" vector-effect="non-scaling-stroke" stroke-width="1" stroke="rgb(0,0,0)" stroke-linejoin="miter" stroke-linecap="square" stroke-miterlimit="3"/><text transform="matrix(1,0,0,1,527,216.655)" style="font-family:'Open Sans';font-weight:400;font-size:12px;font-style:normal;fill:#000000;stroke:none;">0.9</text></g></svg>